<?xml version="1.0" encoding="UTF-8"?>
<svg xmlns="http://www.w3.org/2000/svg" xmlns:xlink="http://www.w3.org/1999/xlink" width="187.5pt" height="187.499995pt" viewBox="0 0 187.5 187.499995" version="1.2">
<defs>
<clipPath id="clip1">
  <path d="M 17.648438 17.648438 L 169.898438 17.648438 L 169.898438 169.898438 L 17.648438 169.898438 Z M 17.648438 17.648438 "/>
</clipPath>
</defs>
<g id="surface1">
<path style=" stroke:none;fill-rule:nonzero;fill:rgb(100%,100%,100%);fill-opacity:1;" d="M 93.75 33.183594 C 91.765625 33.183594 89.789062 33.28125 87.8125 33.476562 C 85.839844 33.671875 83.878906 33.960938 81.933594 34.347656 C 79.988281 34.734375 78.066406 35.214844 76.167969 35.792969 C 74.269531 36.367188 72.40625 37.035156 70.574219 37.792969 C 68.738281 38.554688 66.949219 39.402344 65.199219 40.335938 C 63.449219 41.269531 61.75 42.289062 60.101562 43.390625 C 58.453125 44.492188 56.859375 45.671875 55.328125 46.933594 C 53.792969 48.191406 52.324219 49.519531 50.921875 50.921875 C 49.519531 52.324219 48.191406 53.792969 46.933594 55.328125 C 45.671875 56.859375 44.492188 58.453125 43.390625 60.101562 C 42.289062 61.75 41.269531 63.449219 40.335938 65.199219 C 39.402344 66.949219 38.554688 68.738281 37.792969 70.574219 C 37.035156 72.40625 36.367188 74.269531 35.792969 76.167969 C 35.214844 78.066406 34.734375 79.988281 34.347656 81.933594 C 33.960938 83.878906 33.671875 85.839844 33.476562 87.8125 C 33.28125 89.789062 33.183594 91.765625 33.183594 93.75 C 33.183594 95.734375 33.28125 97.710938 33.476562 99.6875 C 33.671875 101.660156 33.960938 103.621094 34.347656 105.566406 C 34.734375 107.511719 35.214844 109.433594 35.792969 111.332031 C 36.367188 113.230469 37.035156 115.09375 37.792969 116.925781 C 38.554688 118.761719 39.402344 120.550781 40.335938 122.300781 C 41.269531 124.050781 42.289062 125.75 43.390625 127.398438 C 44.492188 129.046875 45.671875 130.640625 46.933594 132.171875 C 48.191406 133.707031 49.519531 135.175781 50.921875 136.578125 C 52.324219 137.980469 53.792969 139.308594 55.328125 140.566406 C 56.859375 141.828125 58.453125 143.007812 60.101562 144.109375 C 61.75 145.210938 63.449219 146.230469 65.199219 147.164062 C 66.949219 148.097656 68.738281 148.945312 70.574219 149.707031 C 72.40625 150.464844 74.269531 151.132812 76.167969 151.707031 C 78.066406 152.285156 79.988281 152.765625 81.933594 153.152344 C 83.878906 153.539062 85.839844 153.828125 87.8125 154.023438 C 89.789062 154.21875 91.765625 154.316406 93.75 154.316406 C 95.734375 154.316406 97.710938 154.21875 99.6875 154.023438 C 101.660156 153.828125 103.621094 153.539062 105.566406 153.152344 C 107.511719 152.765625 109.433594 152.285156 111.332031 151.707031 C 113.230469 151.132812 115.09375 150.464844 116.925781 149.707031 C 118.761719 148.945312 120.550781 148.097656 122.300781 147.164062 C 124.050781 146.230469 125.75 145.210938 127.398438 144.109375 C 129.046875 143.007812 130.640625 141.828125 132.171875 140.566406 C 133.707031 139.308594 135.175781 137.980469 136.578125 136.578125 C 137.980469 135.175781 139.308594 133.707031 140.566406 132.171875 C 141.828125 130.640625 143.007812 129.046875 144.109375 127.398438 C 145.210938 125.75 146.230469 124.050781 147.164062 122.300781 C 148.097656 120.550781 148.945312 118.761719 149.707031 116.925781 C 150.464844 115.09375 151.132812 113.230469 151.707031 111.332031 C 152.285156 109.433594 152.765625 107.511719 153.152344 105.566406 C 153.539062 103.621094 153.828125 101.660156 154.023438 99.6875 C 154.21875 97.710938 154.316406 95.734375 154.316406 93.75 C 154.316406 91.765625 154.21875 89.789062 154.023438 87.8125 C 153.828125 85.839844 153.539062 83.878906 153.152344 81.933594 C 152.765625 79.988281 152.285156 78.066406 151.707031 76.167969 C 151.132812 74.269531 150.464844 72.40625 149.707031 70.574219 C 148.945312 68.738281 148.097656 66.949219 147.164062 65.199219 C 146.230469 63.449219 145.210938 61.75 144.109375 60.101562 C 143.007812 58.453125 141.828125 56.859375 140.566406 55.328125 C 139.308594 53.792969 137.980469 52.324219 136.578125 50.921875 C 135.175781 49.519531 133.707031 48.191406 132.171875 46.933594 C 130.640625 45.671875 129.046875 44.492188 127.398438 43.390625 C 125.75 42.289062 124.050781 41.269531 122.300781 40.335938 C 120.550781 39.402344 118.761719 38.554688 116.925781 37.792969 C 115.09375 37.035156 113.230469 36.367188 111.332031 35.792969 C 109.433594 35.214844 107.511719 34.734375 105.566406 34.347656 C 103.621094 33.960938 101.660156 33.671875 99.6875 33.476562 C 97.710938 33.28125 95.734375 33.183594 93.75 33.183594 Z M 93.75 33.183594 "/>
<path style=" stroke:none;fill-rule:nonzero;fill:rgb(81.959534%,81.959534%,81.959534%);fill-opacity:1;" d="M 125.417969 80.042969 C 125.125 80.03125 124.839844 80.078125 124.566406 80.1875 C 124.289062 80.292969 124.046875 80.449219 123.835938 80.652344 C 123.625 80.855469 123.460938 81.09375 123.347656 81.367188 C 123.230469 81.636719 123.175781 81.921875 123.175781 82.214844 C 123.171875 82.507812 123.230469 82.789062 123.347656 83.058594 C 123.460938 83.324219 123.625 83.5625 123.839844 83.761719 C 124.050781 83.960938 124.292969 84.113281 124.570312 84.214844 C 124.84375 84.3125 125.125 84.355469 125.417969 84.339844 C 125.695312 84.332031 125.960938 84.273438 126.214844 84.164062 C 126.472656 84.054688 126.695312 83.898438 126.890625 83.699219 C 127.082031 83.5 127.230469 83.273438 127.335938 83.015625 C 127.441406 82.761719 127.492188 82.492188 127.492188 82.214844 C 127.5 81.933594 127.453125 81.660156 127.351562 81.398438 C 127.25 81.136719 127.101562 80.902344 126.90625 80.699219 C 126.710938 80.496094 126.484375 80.335938 126.226562 80.222656 C 125.96875 80.109375 125.699219 80.046875 125.417969 80.042969 Z M 125.417969 80.042969 "/>
<path style=" stroke:none;fill-rule:nonzero;fill:rgb(81.959534%,81.959534%,81.959534%);fill-opacity:1;" d="M 93.898438 85.4375 C 93.125 85.441406 92.355469 85.523438 91.597656 85.679688 C 90.839844 85.835938 90.101562 86.066406 89.386719 86.367188 C 88.671875 86.667969 87.992188 87.035156 87.351562 87.46875 C 86.710938 87.902344 86.117188 88.398438 85.570312 88.949219 C 85.023438 89.5 84.539062 90.097656 84.109375 90.742188 C 83.683594 91.390625 83.320312 92.074219 83.027344 92.789062 C 82.734375 93.507812 82.511719 94.246094 82.363281 95.007812 C 82.214844 95.769531 82.140625 96.539062 82.144531 97.3125 C 82.148438 98.085938 82.226562 98.855469 82.378906 99.617188 C 82.53125 100.375 82.757812 101.113281 83.054688 101.828125 C 83.351562 102.546875 83.71875 103.226562 84.148438 103.867188 C 84.582031 104.511719 85.070312 105.109375 85.621094 105.65625 C 86.167969 106.203125 86.765625 106.695312 87.410156 107.125 C 88.054688 107.554688 88.734375 107.917969 89.453125 108.214844 C 90.167969 108.511719 90.90625 108.734375 91.667969 108.886719 C 92.425781 109.039062 93.195312 109.117188 93.96875 109.117188 C 94.746094 109.117188 95.515625 109.042969 96.273438 108.894531 C 97.035156 108.742188 97.773438 108.519531 98.492188 108.226562 C 99.207031 107.929688 99.890625 107.570312 100.535156 107.140625 C 101.179688 106.710938 101.777344 106.222656 102.328125 105.675781 C 102.878906 105.128906 103.371094 104.535156 103.804688 103.894531 C 104.238281 103.25 104.605469 102.570312 104.902344 101.855469 C 105.203125 101.140625 105.429688 100.402344 105.585938 99.644531 C 105.742188 98.882812 105.820312 98.117188 105.824219 97.339844 C 105.832031 96.558594 105.757812 95.78125 105.609375 95.011719 C 105.460938 94.242188 105.238281 93.492188 104.941406 92.765625 C 104.640625 92.042969 104.277344 91.351562 103.839844 90.699219 C 103.40625 90.046875 102.910156 89.445312 102.355469 88.890625 C 101.800781 88.335938 101.195312 87.84375 100.542969 87.410156 C 99.890625 86.976562 99.199219 86.609375 98.476562 86.3125 C 97.75 86.019531 97 85.796875 96.230469 85.648438 C 95.460938 85.5 94.683594 85.429688 93.898438 85.4375 Z M 93.898438 85.4375 "/>
<path style=" stroke:none;fill-rule:nonzero;fill:rgb(81.959534%,81.959534%,81.959534%);fill-opacity:1;" d="M 93.898438 115.5625 C 93.300781 115.5625 92.703125 115.53125 92.109375 115.472656 C 91.511719 115.414062 90.921875 115.324219 90.332031 115.207031 C 89.746094 115.089844 89.167969 114.945312 88.59375 114.773438 C 88.019531 114.597656 87.457031 114.394531 86.90625 114.167969 C 86.351562 113.9375 85.8125 113.683594 85.285156 113.398438 C 84.757812 113.117188 84.242188 112.808594 83.746094 112.476562 C 83.246094 112.144531 82.769531 111.789062 82.304688 111.40625 C 81.84375 111.027344 81.398438 110.625 80.976562 110.203125 C 80.554688 109.78125 80.152344 109.335938 79.773438 108.875 C 79.390625 108.410156 79.035156 107.929688 78.703125 107.433594 C 78.371094 106.933594 78.0625 106.421875 77.78125 105.894531 C 77.5 105.367188 77.246094 104.824219 77.015625 104.273438 C 76.785156 103.71875 76.585938 103.15625 76.410156 102.582031 C 76.238281 102.011719 76.09375 101.429688 75.976562 100.84375 C 75.859375 100.257812 75.769531 99.664062 75.710938 99.070312 C 75.652344 98.472656 75.625 97.875 75.625 97.277344 C 75.625 96.679688 75.652344 96.082031 75.710938 95.484375 C 75.769531 94.890625 75.859375 94.296875 75.976562 93.710938 C 76.09375 93.125 76.238281 92.542969 76.410156 91.972656 C 76.585938 91.398438 76.785156 90.835938 77.015625 90.28125 C 77.246094 89.730469 77.5 89.1875 77.78125 88.660156 C 78.0625 88.132812 78.371094 87.621094 78.703125 87.121094 C 79.035156 86.625 79.390625 86.144531 79.773438 85.679688 C 80.152344 85.21875 80.554688 84.773438 80.976562 84.351562 C 81.398438 83.929688 81.84375 83.527344 82.304688 83.148438 C 82.769531 82.765625 83.246094 82.410156 83.746094 82.078125 C 84.242188 81.746094 84.757812 81.4375 85.285156 81.15625 C 85.8125 80.871094 86.351562 80.617188 86.90625 80.386719 C 87.457031 80.160156 88.019531 79.957031 88.59375 79.78125 C 89.167969 79.609375 89.746094 79.464844 90.332031 79.347656 C 90.921875 79.230469 91.511719 79.140625 92.109375 79.082031 C 92.703125 79.023438 93.300781 78.992188 93.898438 78.992188 C 94.5 78.992188 95.097656 79.023438 95.691406 79.082031 C 96.289062 79.140625 96.878906 79.226562 97.46875 79.34375 C 98.054688 79.460938 98.636719 79.605469 99.210938 79.777344 C 99.78125 79.953125 100.347656 80.152344 100.898438 80.382812 C 101.453125 80.613281 101.992188 80.867188 102.523438 81.148438 C 103.050781 81.429688 103.5625 81.738281 104.0625 82.070312 C 104.558594 82.402344 105.039062 82.761719 105.503906 83.140625 C 105.96875 83.519531 106.410156 83.921875 106.835938 84.34375 C 107.257812 84.769531 107.660156 85.210938 108.039062 85.675781 C 108.417969 86.136719 108.777344 86.617188 109.109375 87.117188 C 109.441406 87.613281 109.75 88.128906 110.03125 88.65625 C 110.316406 89.183594 110.570312 89.726562 110.800781 90.277344 C 111.027344 90.832031 111.230469 91.394531 111.40625 91.96875 C 111.578125 92.542969 111.722656 93.121094 111.839844 93.710938 C 111.957031 94.296875 112.046875 94.886719 112.105469 95.484375 C 112.164062 96.082031 112.191406 96.679688 112.191406 97.277344 C 112.191406 97.875 112.164062 98.472656 112.105469 99.070312 C 112.046875 99.667969 111.957031 100.257812 111.839844 100.84375 C 111.722656 101.433594 111.578125 102.011719 111.40625 102.585938 C 111.230469 103.160156 111.027344 103.722656 110.800781 104.277344 C 110.570312 104.828125 110.316406 105.371094 110.03125 105.898438 C 109.75 106.425781 109.441406 106.941406 109.109375 107.4375 C 108.777344 107.9375 108.417969 108.417969 108.039062 108.878906 C 107.660156 109.34375 107.257812 109.785156 106.835938 110.210938 C 106.410156 110.632812 105.96875 111.035156 105.503906 111.414062 C 105.039062 111.792969 104.558594 112.152344 104.0625 112.484375 C 103.5625 112.816406 103.050781 113.125 102.523438 113.40625 C 101.992188 113.6875 101.453125 113.941406 100.898438 114.171875 C 100.347656 114.402344 99.78125 114.601562 99.210938 114.777344 C 98.636719 114.949219 98.054688 115.09375 97.46875 115.210938 C 96.878906 115.328125 96.289062 115.414062 95.691406 115.472656 C 95.097656 115.53125 94.5 115.5625 93.898438 115.5625 Z M 125.417969 86.414062 C 125.136719 86.425781 124.855469 86.410156 124.574219 86.363281 C 124.296875 86.320312 124.023438 86.246094 123.757812 86.144531 C 123.496094 86.046875 123.242188 85.921875 123.003906 85.769531 C 122.765625 85.617188 122.542969 85.445312 122.339844 85.25 C 122.132812 85.050781 121.953125 84.839844 121.792969 84.605469 C 121.628906 84.371094 121.496094 84.125 121.382812 83.867188 C 121.273438 83.605469 121.1875 83.335938 121.132812 83.058594 C 121.074219 82.78125 121.046875 82.5 121.046875 82.21875 C 121.046875 81.9375 121.074219 81.65625 121.132812 81.378906 C 121.1875 81.101562 121.273438 80.832031 121.382812 80.570312 C 121.496094 80.3125 121.628906 80.066406 121.792969 79.832031 C 121.953125 79.597656 122.132812 79.386719 122.339844 79.1875 C 122.542969 78.992188 122.765625 78.820312 123.003906 78.667969 C 123.242188 78.515625 123.496094 78.390625 123.757812 78.292969 C 124.023438 78.191406 124.296875 78.117188 124.574219 78.074219 C 124.855469 78.027344 125.136719 78.011719 125.417969 78.023438 C 125.703125 78.011719 125.984375 78.027344 126.261719 78.074219 C 126.542969 78.117188 126.8125 78.191406 127.078125 78.292969 C 127.34375 78.390625 127.59375 78.515625 127.832031 78.667969 C 128.074219 78.820312 128.292969 78.992188 128.5 79.1875 C 128.703125 79.386719 128.886719 79.597656 129.046875 79.832031 C 129.207031 80.066406 129.34375 80.3125 129.453125 80.570312 C 129.566406 80.832031 129.648438 81.101562 129.707031 81.378906 C 129.761719 81.65625 129.789062 81.9375 129.789062 82.21875 C 129.789062 82.5 129.761719 82.78125 129.707031 83.058594 C 129.648438 83.335938 129.566406 83.605469 129.453125 83.867188 C 129.34375 84.125 129.207031 84.371094 129.046875 84.605469 C 128.886719 84.839844 128.703125 85.050781 128.5 85.25 C 128.292969 85.445312 128.074219 85.617188 127.832031 85.769531 C 127.59375 85.921875 127.34375 86.046875 127.078125 86.144531 C 126.8125 86.246094 126.542969 86.320312 126.261719 86.363281 C 125.984375 86.410156 125.703125 86.425781 125.417969 86.414062 Z M 125.417969 86.414062 "/>
<g clip-path="url(#clip1)" clip-rule="nonzero">
<path style=" stroke:none;fill-rule:nonzero;fill:rgb(81.959534%,81.959534%,81.959534%);fill-opacity:1;" d="M 94 17.726562 C 92.75 17.726562 91.503906 17.757812 90.257812 17.820312 C 89.011719 17.878906 87.765625 17.972656 86.523438 18.097656 C 85.28125 18.21875 84.042969 18.371094 82.808594 18.554688 C 81.574219 18.742188 80.34375 18.953125 79.121094 19.199219 C 77.898438 19.441406 76.679688 19.714844 75.46875 20.019531 C 74.257812 20.324219 73.054688 20.65625 71.863281 21.019531 C 70.667969 21.382812 69.484375 21.777344 68.308594 22.195312 C 67.132812 22.617188 65.96875 23.066406 64.816406 23.546875 C 63.664062 24.023438 62.523438 24.53125 61.394531 25.066406 C 60.265625 25.597656 59.152344 26.160156 58.050781 26.75 C 56.953125 27.339844 55.867188 27.953125 54.796875 28.597656 C 53.726562 29.238281 52.671875 29.90625 51.636719 30.601562 C 50.597656 31.292969 49.578125 32.011719 48.574219 32.757812 C 47.574219 33.5 46.589844 34.269531 45.625 35.0625 C 44.660156 35.855469 43.714844 36.667969 42.792969 37.507812 C 41.867188 38.347656 40.964844 39.207031 40.082031 40.089844 C 39.199219 40.972656 38.339844 41.878906 37.503906 42.800781 C 36.664062 43.726562 35.851562 44.671875 35.058594 45.636719 C 34.265625 46.601562 33.5 47.585938 32.757812 48.589844 C 32.015625 49.59375 31.296875 50.613281 30.601562 51.652344 C 29.910156 52.6875 29.242188 53.742188 28.601562 54.816406 C 27.960938 55.886719 27.347656 56.972656 26.757812 58.074219 C 26.171875 59.171875 25.609375 60.289062 25.078125 61.417969 C 24.542969 62.546875 24.039062 63.6875 23.5625 64.839844 C 23.085938 65.992188 22.636719 67.15625 22.214844 68.332031 C 21.796875 69.507812 21.40625 70.691406 21.042969 71.886719 C 20.679688 73.082031 20.347656 74.285156 20.046875 75.496094 C 19.742188 76.707031 19.46875 77.921875 19.226562 79.148438 C 18.984375 80.371094 18.769531 81.601562 18.589844 82.835938 C 18.40625 84.070312 18.253906 85.308594 18.132812 86.550781 C 18.011719 87.792969 17.917969 89.039062 17.859375 90.285156 C 17.796875 91.53125 17.765625 92.777344 17.765625 94.027344 C 17.769531 95.273438 17.796875 96.523438 17.859375 97.769531 C 17.921875 99.015625 18.011719 100.257812 18.136719 101.5 C 18.257812 102.742188 18.410156 103.980469 18.59375 105.214844 C 18.777344 106.449219 18.992188 107.679688 19.234375 108.902344 C 19.480469 110.125 19.753906 111.34375 20.054688 112.554688 C 20.359375 113.765625 20.691406 114.964844 21.054688 116.160156 C 21.417969 117.355469 21.808594 118.539062 22.230469 119.714844 C 22.652344 120.890625 23.101562 122.054688 23.578125 123.207031 C 24.054688 124.359375 24.5625 125.5 25.09375 126.628906 C 25.628906 127.753906 26.191406 128.871094 26.777344 129.96875 C 27.367188 131.070312 27.980469 132.15625 28.625 133.226562 C 29.265625 134.296875 29.933594 135.351562 30.625 136.386719 C 31.320312 137.425781 32.039062 138.445312 32.78125 139.449219 C 33.527344 140.449219 34.292969 141.433594 35.085938 142.398438 C 35.878906 143.363281 36.691406 144.304688 37.53125 145.230469 C 38.371094 146.15625 39.230469 147.058594 40.113281 147.941406 C 40.996094 148.824219 41.898438 149.683594 42.824219 150.523438 C 43.75 151.359375 44.695312 152.175781 45.660156 152.964844 C 46.625 153.757812 47.605469 154.523438 48.609375 155.269531 C 49.613281 156.011719 50.632812 156.730469 51.671875 157.421875 C 52.707031 158.117188 53.761719 158.785156 54.832031 159.425781 C 55.902344 160.066406 56.988281 160.679688 58.089844 161.269531 C 59.191406 161.859375 60.304688 162.417969 61.433594 162.953125 C 62.5625 163.484375 63.703125 163.992188 64.855469 164.46875 C 66.007812 164.945312 67.171875 165.394531 68.347656 165.816406 C 69.523438 166.234375 70.707031 166.628906 71.902344 166.988281 C 73.097656 167.351562 74.300781 167.683594 75.511719 167.988281 C 76.722656 168.289062 77.9375 168.5625 79.164062 168.808594 C 80.386719 169.050781 81.617188 169.265625 82.851562 169.445312 C 84.085938 169.628906 85.324219 169.78125 86.566406 169.90625 C 87.808594 170.027344 89.050781 170.121094 90.300781 170.179688 C 91.546875 170.242188 92.792969 170.273438 94.042969 170.273438 C 95.289062 170.273438 96.539062 170.242188 97.785156 170.179688 C 99.03125 170.117188 100.277344 170.027344 101.519531 169.902344 C 102.761719 169.78125 104 169.628906 105.234375 169.445312 C 106.46875 169.261719 107.699219 169.046875 108.921875 168.804688 C 110.148438 168.5625 111.363281 168.285156 112.574219 167.984375 C 113.785156 167.679688 114.988281 167.347656 116.183594 166.984375 C 117.378906 166.621094 118.5625 166.230469 119.738281 165.808594 C 120.914062 165.390625 122.078125 164.941406 123.230469 164.460938 C 124.382812 163.984375 125.523438 163.480469 126.652344 162.945312 C 127.78125 162.410156 128.898438 161.851562 129.996094 161.261719 C 131.097656 160.671875 132.183594 160.058594 133.253906 159.414062 C 134.324219 158.773438 135.378906 158.105469 136.417969 157.414062 C 137.457031 156.71875 138.476562 156 139.476562 155.257812 C 140.480469 154.511719 141.464844 153.746094 142.429688 152.953125 C 143.394531 152.160156 144.339844 151.347656 145.265625 150.507812 C 146.1875 149.671875 147.09375 148.808594 147.976562 147.925781 C 148.859375 147.042969 149.71875 146.140625 150.558594 145.214844 C 151.394531 144.292969 152.210938 143.347656 153.003906 142.382812 C 153.792969 141.417969 154.5625 140.433594 155.304688 139.429688 C 156.050781 138.425781 156.765625 137.40625 157.460938 136.371094 C 158.15625 135.332031 158.820312 134.277344 159.464844 133.207031 C 160.105469 132.136719 160.71875 131.050781 161.308594 129.949219 C 161.898438 128.847656 162.457031 127.734375 162.992188 126.605469 C 163.527344 125.476562 164.03125 124.335938 164.507812 123.183594 C 164.988281 122.03125 165.4375 120.867188 165.855469 119.691406 C 166.277344 118.515625 166.667969 117.332031 167.03125 116.136719 C 167.394531 114.941406 167.726562 113.738281 168.027344 112.53125 C 168.332031 111.320312 168.605469 110.101562 168.847656 108.878906 C 169.09375 107.652344 169.304688 106.421875 169.488281 105.1875 C 169.671875 103.953125 169.824219 102.714844 169.949219 101.472656 C 170.070312 100.230469 170.160156 98.988281 170.222656 97.742188 C 170.285156 96.496094 170.316406 95.246094 170.316406 94 C 170.3125 92.75 170.28125 91.503906 170.222656 90.253906 C 170.160156 89.007812 170.066406 87.761719 169.945312 86.519531 C 169.820312 85.277344 169.667969 84.039062 169.484375 82.804688 C 169.300781 81.570312 169.085938 80.339844 168.839844 79.117188 C 168.597656 77.890625 168.324219 76.675781 168.019531 75.464844 C 167.714844 74.253906 167.382812 73.050781 167.019531 71.855469 C 166.65625 70.660156 166.261719 69.476562 165.84375 68.300781 C 165.421875 67.125 164.972656 65.960938 164.492188 64.808594 C 164.015625 63.652344 163.507812 62.511719 162.976562 61.382812 C 162.441406 60.253906 161.878906 59.140625 161.289062 58.039062 C 160.699219 56.9375 160.085938 55.855469 159.441406 54.78125 C 158.800781 53.710938 158.132812 52.65625 157.4375 51.621094 C 156.746094 50.582031 156.027344 49.5625 155.28125 48.558594 C 154.539062 47.558594 153.769531 46.574219 152.976562 45.609375 C 152.183594 44.644531 151.367188 43.699219 150.53125 42.773438 C 149.691406 41.847656 148.832031 40.945312 147.949219 40.0625 C 147.0625 39.179688 146.160156 38.320312 145.234375 37.480469 C 144.308594 36.644531 143.363281 35.828125 142.398438 35.035156 C 141.433594 34.246094 140.449219 33.476562 139.445312 32.734375 C 138.441406 31.988281 137.421875 31.269531 136.382812 30.578125 C 135.347656 29.882812 134.292969 29.214844 133.21875 28.574219 C 132.148438 27.933594 131.0625 27.320312 129.960938 26.730469 C 128.859375 26.140625 127.746094 25.582031 126.617188 25.046875 C 125.488281 24.511719 124.347656 24.007812 123.195312 23.53125 C 122.039062 23.050781 120.875 22.601562 119.699219 22.183594 C 118.523438 21.761719 117.339844 21.371094 116.144531 21.007812 C 114.949219 20.648438 113.746094 20.3125 112.535156 20.011719 C 111.324219 19.707031 110.105469 19.433594 108.882812 19.191406 C 107.65625 18.945312 106.425781 18.734375 105.191406 18.550781 C 103.957031 18.367188 102.71875 18.214844 101.476562 18.09375 C 100.234375 17.96875 98.988281 17.878906 97.742188 17.816406 C 96.496094 17.753906 95.246094 17.726562 94 17.726562 Z M 143.496094 120.214844 C 143.492188 120.953125 143.417969 121.683594 143.269531 122.40625 C 143.125 123.132812 142.90625 123.835938 142.625 124.515625 C 142.339844 125.195312 141.992188 125.84375 141.578125 126.457031 C 141.167969 127.070312 140.703125 127.640625 140.179688 128.160156 C 139.65625 128.683594 139.089844 129.152344 138.476562 129.5625 C 137.863281 129.972656 137.214844 130.320312 136.53125 130.605469 C 135.851562 130.890625 135.148438 131.105469 134.425781 131.253906 C 133.699219 131.402344 132.96875 131.476562 132.230469 131.480469 L 55.886719 131.480469 C 55.144531 131.476562 54.414062 131.402344 53.6875 131.257812 C 52.960938 131.109375 52.257812 130.894531 51.574219 130.609375 C 50.890625 130.328125 50.238281 129.980469 49.625 129.570312 C 49.007812 129.160156 48.4375 128.691406 47.910156 128.171875 C 47.386719 127.648438 46.917969 127.082031 46.503906 126.464844 C 46.089844 125.851562 45.738281 125.203125 45.449219 124.523438 C 45.164062 123.839844 44.941406 123.136719 44.792969 122.410156 C 44.644531 121.6875 44.5625 120.953125 44.554688 120.214844 L 44.554688 77.648438 C 44.558594 76.90625 44.628906 76.171875 44.777344 75.441406 C 44.921875 74.714844 45.136719 74.007812 45.425781 73.324219 C 45.710938 72.636719 46.058594 71.988281 46.472656 71.371094 C 46.886719 70.753906 47.355469 70.1875 47.882812 69.664062 C 48.410156 69.140625 48.980469 68.671875 49.601562 68.261719 C 50.21875 67.851562 50.871094 67.503906 51.558594 67.222656 C 52.246094 66.941406 52.953125 66.730469 53.679688 66.589844 C 54.410156 66.449219 55.144531 66.378906 55.886719 66.382812 L 74.835938 66.382812 L 79.136719 58.25 C 79.25 57.976562 79.402344 57.726562 79.597656 57.5 C 79.792969 57.273438 80.015625 57.082031 80.269531 56.925781 C 80.523438 56.769531 80.796875 56.65625 81.085938 56.585938 C 81.375 56.515625 81.671875 56.492188 81.96875 56.515625 L 106.226562 56.515625 C 106.828125 56.503906 107.386719 56.65625 107.898438 56.96875 C 108.410156 57.285156 108.796875 57.710938 109.0625 58.25 L 113.351562 66.382812 L 132.273438 66.382812 C 133.015625 66.375 133.75 66.445312 134.476562 66.585938 C 135.203125 66.726562 135.910156 66.9375 136.597656 67.21875 C 137.28125 67.5 137.933594 67.847656 138.550781 68.257812 C 139.167969 68.667969 139.738281 69.136719 140.261719 69.660156 C 140.785156 70.183594 141.253906 70.753906 141.664062 71.371094 C 142.074219 71.988281 142.421875 72.640625 142.703125 73.324219 C 142.984375 74.011719 143.195312 74.71875 143.335938 75.445312 C 143.476562 76.171875 143.542969 76.90625 143.539062 77.648438 Z M 143.496094 120.214844 "/>
</g>
</g>
</svg>
