<?xml version="1.0" encoding="utf-8"?>
<!-- Generator: Adobe Illustrator 25.2.1, SVG Export Plug-In . SVG Version: 6.00 Build 0)  -->
<svg version="1.1" id="Layer_1" xmlns="http://www.w3.org/2000/svg" xmlns:xlink="http://www.w3.org/1999/xlink" x="0px" y="0px"
	 viewBox="0 0 491.9 130" style="enable-background:new 0 0 491.9 130;" xml:space="preserve">
<style type="text/css">
	.st0{fill:#FFFFFF;}
	.st1{fill:#FF3D9A;}
</style>
<g>
	<path class="st0" d="M68.1,7.8c9.8,0,14.3,3.6,14.3,11.2c0,1.6-0.1,3.1-0.4,4.7l-2.6,14.1c-1.9,11-4.9,16.7-19.6,16.7h-2.6
		l17.6,22.6c0.5,0.5,0.4,1.4-0.1,1.8c-0.2,0.2-0.6,0.3-0.9,0.3H59.5c-1.4,0.2-2.8-0.5-3.6-1.6L39.8,55.2H20.4l-3.8,22
		c-0.2,1.3-1.3,2.2-2.6,2.1H2c-1.5,0-2.1-0.8-1.9-2.1L11.9,10c0.2-1.3,1.3-2.2,2.6-2.1L68.1,7.8z M26.5,21.2l-3.7,20.6H54
		c7.2,0,8.6-1.2,9.6-7.1l1.1-6.3c0.2-1,0.3-2.1,0.3-3.2c0-3.3-1.7-4-7.3-4L26.5,21.2z"/>
	<path class="st0" d="M142.5,64.7c-1.8,10.1-4,14.6-17.8,14.6H98.2c-9,0-13.1-3.2-13.1-10.2c0-1.5,0.1-2.9,0.4-4.4l4.3-24.5
		c1.7-10.1,4.1-14.6,17.8-14.6h26.6c9,0,13.1,3.2,13.1,10.2c0,1.5-0.1,2.9-0.4,4.4L142.5,64.7z M112.6,37.7c-6.3,0-7.7,1-8.7,6.3
		l-2.9,16.8c-0.2,0.9-0.3,1.9-0.3,2.9c0,2.9,1.5,3.5,6.6,3.5h12.2c6.3,0,7.7-1,8.5-6.3l3-16.7c0.2-0.9,0.3-1.9,0.3-2.9
		c0-2.9-1.6-3.5-6.5-3.5L112.6,37.7z"/>
	<path class="st0" d="M158,40.2c1.7-10.1,4.1-14.6,17.8-14.6h26.4c8.4,0,12.3,2.9,12.3,9.5c0,1.4-0.1,2.8-0.4,4.2l-0.7,3.9
		c-0.1,1.2-1.2,2-2.3,1.9h-10.4c-1.4,0-1.9-0.7-1.7-1.9l0.3-1.9c0.1-0.3,0.1-0.6,0.1-0.9c0-1.7-1.2-2.5-3.6-2.5h-14.8
		c-6.3,0-7.7,1-8.7,6.3l-2.9,16.7c-0.2,0.9-0.3,1.9-0.3,2.9c0,2.9,1.5,3.5,6.6,3.5h14.8c2.8,0,4.3-1,4.8-3.5l0.3-1.9
		c0.1-1.2,1.1-2,2.3-1.9c0,0,0,0,0.1,0h10.4c1.3,0,1.9,0.7,1.7,1.9l-0.6,3.9c-1.7,9.6-3.6,13.7-16.6,13.7h-26.4
		c-9,0-13.1-3.2-13.1-10.2c0-1.5,0.1-2.9,0.4-4.4L158,40.2z"/>
	<path class="st0" d="M246,58.1h-8.7L234,77.4c-0.1,1.2-1.1,2-2.3,1.9c0,0,0,0-0.1,0h-10.9c-1.4,0-2-0.7-1.8-1.9l12.7-71.7
		c0.1-1.2,1.2-2.1,2.4-1.9c0,0,0,0,0,0h10.8c1.4,0,1.9,0.7,1.7,1.9l-7.2,40.9h7L266.9,27c0.8-0.9,2-1.5,3.3-1.4h14
		c1,0,1.3,1.1,0.4,1.9l-26.2,24.6l18,25.2c0.4,0.5,0.3,1.3-0.2,1.7c-0.2,0.2-0.5,0.3-0.8,0.3h-12.5c-1.2,0.2-2.4-0.4-3-1.4L246,58.1
		z"/>
	<path class="st1" d="M303.7,65.9h46.5c1.5,0,2.1,0.8,1.9,2.1l-1.6,9.1c-0.1,1.3-1.3,2.2-2.6,2.1h-60.8c-1.5,0-2.1-0.8-1.9-2.1
		L297,10c0.2-1.3,1.3-2.2,2.7-2.1h11.9c1.4,0,2.2,0.8,1.9,2.1L303.7,65.9z"/>
	<path class="st1" d="M417,64.7c-1.8,10.1-4,14.6-17.8,14.6h-26.5c-9,0-13.1-3.2-13.1-10.2c0-1.5,0.1-2.9,0.4-4.4l4.3-24.5
		c1.7-10.1,4.1-14.6,17.8-14.6h26.5c9,0,13.1,3.2,13.1,10.2c0,1.5-0.1,2.9-0.4,4.4L417,64.7z M387.2,37.7c-6.3,0-7.7,1-8.7,6.3
		l-2.8,16.8c-0.2,0.9-0.3,1.9-0.3,2.9c0,2.9,1.5,3.5,6.6,3.5h12.1c6.3,0,7.7-1,8.5-6.3l3-16.7c0.2-0.9,0.3-1.9,0.3-2.9
		c0-2.9-1.6-3.5-6.5-3.5L387.2,37.7z"/>
	<path class="st1" d="M430.1,27.5c-0.2-1.2,0.4-1.9,1.4-1.9h11.6c1.6,0,2.4,0.5,2.5,1.8l7.8,40l22-40c0.5-1.3,1.7-2,3.1-1.8h12.2
		c1,0,1.5,0.7,0.8,1.9l-29.1,49.9c-0.5,1.2-1.8,2-3.2,1.8h-15.1c-1.6,0-2.2-0.5-2.6-1.8L430.1,27.5z"/>
	<path class="st0" d="M40.3,104.3v-9.9c0-0.1,0-0.3,0.1-0.4c0.1-0.1,0.3-0.1,0.4-0.1h0.1c0.2-0.1,0.4,0.1,0.5,0.3c0,0.1,0,0.1,0,0.2
		v5.3c0.5-1.1,1.7-1.7,3.4-1.7c1.2-0.1,2.4,0.3,3.3,1.1c0.7,0.9,1.1,2,1,3.2v2c0.1,1.1-0.3,2.3-1,3.2c-0.9,0.8-2.2,1.2-3.4,1.1
		C41.8,108.6,40.3,107.2,40.3,104.3z M48,104.3v-2c0.1-0.9-0.2-1.7-0.7-2.4c-0.7-0.6-1.6-0.9-2.6-0.8c-0.9-0.1-1.9,0.2-2.6,0.8
		c-0.5,0.7-0.8,1.6-0.7,2.4v2c-0.1,0.9,0.2,1.7,0.7,2.4c0.7,0.6,1.6,0.9,2.6,0.8c0.9,0.1,1.9-0.2,2.6-0.8
		C47.8,106.1,48,105.2,48,104.3z"/>
	<path class="st0" d="M51.5,98.7l2.2,7.5c0.1,0.4,0.2,0.7,0.5,1c0.5,0.3,1.2,0.3,1.7,0c0.3-0.3,0.4-0.6,0.5-1l1.9-7.5
		c0-0.1,0.1-0.3,0.2-0.4c0.1-0.1,0.3-0.1,0.4-0.1H59c0.2,0,0.3,0,0.4,0.1c0.1,0.1,0.1,0.3,0,0.4l-2.5,9.7c-0.3,1.1-0.8,2.2-1.5,3.1
		c-0.6,0.7-1.6,1.2-2.5,1.1c-0.1,0-0.2,0-0.3-0.1c-0.1-0.1-0.1-0.2-0.2-0.3v-0.2c0-0.2,0-0.3,0-0.3s0.1-0.1,0.3-0.1
		c0.8,0,1.5-0.3,2-0.8c0.6-0.8,1-1.7,1.2-2.7c-0.3,0.2-0.7,0.3-1.1,0.3c-0.5,0-1-0.2-1.4-0.5c-0.4-0.5-0.6-1.1-0.8-1.7l-2.2-7.5
		c0-0.2-0.1-0.3,0-0.4s0.2-0.1,0.4-0.1h0.1c0.2,0,0.3,0,0.4,0.1C51.4,98.4,51.5,98.6,51.5,98.7z"/>
	<g>
		<path class="st0" d="M124.7,99.3l0.4,8.5c0,0.6,0,1-0.2,1.2c-0.2,0.2-0.6,0.3-1.1,0.3l-0.4,0c-0.6,0-1,0-1.2-0.2
			c-0.2-0.2-0.3-0.6-0.3-1.1l-0.4-8.5c-0.2-4.1,2-6.3,6.6-6.5c2.4-0.1,4.2,0.3,5.3,1.3c1.1,1,1.8,2.5,1.9,4.5l0.4,8.5
			c0,0.6,0,1-0.2,1.2c-0.2,0.2-0.6,0.3-1.1,0.3l-0.4,0c-0.6,0-1,0-1.2-0.2s-0.3-0.6-0.3-1.1l-0.4-8.5c-0.1-1.1-0.3-1.9-0.9-2.3
			c-0.5-0.5-1.5-0.7-2.9-0.6c-1.4,0.1-2.4,0.4-2.8,0.9C124.9,97.4,124.6,98.2,124.7,99.3z"/>
		<path class="st0" d="M138.8,89.3c-0.4-0.4-0.6-0.8-0.7-1.4c0-0.5,0.1-1,0.5-1.4c0.4-0.4,0.8-0.6,1.4-0.7c0.5,0,1,0.1,1.4,0.5
			c0.4,0.4,0.6,0.8,0.7,1.4c0,0.5-0.1,1-0.5,1.4c-0.4,0.4-0.8,0.6-1.4,0.7C139.7,89.9,139.2,89.7,138.8,89.3z M139.4,107.1
			l-0.7-12.9c0-0.6,0-1,0.2-1.2c0.2-0.2,0.6-0.3,1.1-0.3l0.4,0c0.6,0,1,0,1.2,0.2s0.3,0.6,0.3,1.1l0.7,12.9c0,0.6,0,1-0.2,1.2
			c-0.2,0.2-0.6,0.3-1.1,0.3l-0.4,0c-0.6,0-1,0-1.2-0.2C139.6,108,139.5,107.7,139.4,107.1z"/>
		<path class="st0" d="M149.3,98.1l0.4,8.5c0,0.6,0,1-0.2,1.2s-0.6,0.3-1.1,0.3l-0.4,0c-0.6,0-1,0-1.2-0.2c-0.2-0.2-0.3-0.6-0.3-1.1
			l-0.4-8.5c-0.2-4.1,2-6.3,6.6-6.5c2.4-0.1,4.2,0.3,5.3,1.3c1.1,1,1.8,2.5,1.9,4.5l0.4,8.5c0,0.6,0,1-0.2,1.2
			c-0.2,0.2-0.6,0.3-1.1,0.3l-0.4,0c-0.6,0-1,0-1.2-0.2c-0.2-0.2-0.3-0.6-0.3-1.1l-0.4-8.5c-0.1-1.1-0.3-1.9-0.9-2.3
			c-0.5-0.5-1.5-0.7-2.9-0.6c-1.4,0.1-2.4,0.4-2.8,0.9C149.5,96.2,149.2,97,149.3,98.1z"/>
		<path class="st0" d="M166.5,92.8l0.5,10.3c0.1,2.8-0.1,5-0.8,6.6s-1.6,3-2.9,4.1c-0.3,0.3-0.6,0.4-0.8,0.3
			c-0.2-0.1-0.5-0.3-0.8-0.7l-0.3-0.4c-0.3-0.4-0.4-0.8-0.4-1c0-0.2,0.2-0.5,0.5-0.8c1.7-1.7,2.4-4.2,2.3-7.6L163.3,93
			c0-0.6,0-1,0.2-1.2c0.2-0.2,0.6-0.3,1.1-0.3l0.4,0c0.6,0,1,0,1.2,0.2S166.5,92.2,166.5,92.8z M163.3,88.1
			c-0.4-0.4-0.6-0.8-0.7-1.4c0-0.5,0.1-1,0.5-1.4s0.8-0.6,1.4-0.7c0.5,0,1,0.1,1.4,0.5s0.6,0.8,0.7,1.4c0,0.5-0.1,1-0.5,1.4
			c-0.4,0.4-0.8,0.6-1.4,0.7C164.2,88.6,163.7,88.5,163.3,88.1z"/>
		<path class="st0" d="M182.8,95.4l0.3,6.1c0.1,1.8-0.4,3.1-1.4,3.9c-1,0.9-2.7,1.4-5.1,1.5c-4.3,0.2-6.5-1.3-6.7-4.6
			c-0.1-1.7,0.4-2.9,1.5-3.7c1.1-0.8,2.7-1.3,4.7-1.4l3.5-0.2l-0.1-1.6c0-0.9-0.4-1.5-1-1.9c-0.6-0.3-1.6-0.4-2.8-0.4
			c-1.3,0.1-2.4,0.2-3.3,0.5c-0.5,0.1-0.8,0.1-0.9,0c-0.2-0.1-0.3-0.4-0.3-0.9l0-0.4c0-0.5,0-0.8,0.2-1s0.4-0.3,0.9-0.4
			c1-0.2,2-0.4,3.2-0.4c2.3-0.1,4.1,0.2,5.4,0.9S182.8,93.5,182.8,95.4z M179.9,101.6l-0.1-2l-3.5,0.2c-1.1,0.1-1.9,0.3-2.4,0.6
			c-0.5,0.4-0.7,1-0.7,1.8c0,0.8,0.4,1.4,0.9,1.7c0.6,0.3,1.3,0.4,2.3,0.3c1.2-0.1,2.1-0.3,2.7-0.6
			C179.7,103.2,180,102.6,179.9,101.6z"/>
	</g>
	<g>
		<path class="st1" d="M164.2,121c-0.3-0.2-0.4-0.6-0.4-0.9c0-0.4,0.1-0.7,0.3-1c0.2-0.3,0.6-0.4,0.9-0.4c0.4,0,0.7,0.1,1,0.3
			c0.3,0.2,0.4,0.6,0.4,0.9c0,0.4-0.1,0.7-0.3,1c-0.2,0.3-0.6,0.4-0.9,0.4C164.8,121.3,164.5,121.2,164.2,121z"/>
		<path class="st1" d="M176.3,113.5l0.2,4c0.1,1.1-0.3,2-0.9,2.6c-0.7,0.6-1.8,0.9-3.3,1c-2.8,0.1-4.2-0.8-4.3-3
			c-0.1-1.1,0.3-1.9,1-2.4c0.7-0.5,1.7-0.8,3.1-0.9l2.3-0.1l-0.1-1c0-0.6-0.3-1-0.7-1.2c-0.4-0.2-1-0.3-1.8-0.2
			c-0.8,0-1.5,0.1-2.2,0.3c-0.3,0.1-0.5,0.1-0.6,0c-0.1-0.1-0.2-0.3-0.2-0.6l0-0.3c0-0.3,0-0.5,0.1-0.6c0.1-0.1,0.3-0.2,0.6-0.3
			c0.6-0.1,1.3-0.2,2.1-0.3c1.5-0.1,2.7,0.1,3.5,0.6S176.2,112.2,176.3,113.5z M174.4,117.5l-0.1-1.3l-2.3,0.1
			c-0.7,0-1.2,0.2-1.6,0.4c-0.3,0.2-0.5,0.6-0.4,1.1c0,0.5,0.2,0.9,0.6,1.1c0.4,0.2,0.9,0.3,1.5,0.2c0.8,0,1.3-0.2,1.7-0.4
			C174.2,118.6,174.4,118.1,174.4,117.5z"/>
		<path class="st1" d="M178.2,116.3l-0.1-2c-0.1-1.3,0.3-2.4,1-3.2c0.8-0.8,1.9-1.3,3.5-1.3c0.5,0,1.1,0,1.6,0.1
			c0.3,0.1,0.6,0.2,0.7,0.3c0.1,0.1,0.2,0.4,0.2,0.7l0,0.3c0,0.4,0,0.6-0.2,0.7c-0.1,0.1-0.3,0.1-0.7,0c-0.4-0.1-0.9-0.2-1.5-0.1
			c-1,0-1.7,0.3-2.1,0.7c-0.4,0.4-0.5,1-0.5,1.9l0.1,1.9c0,0.9,0.3,1.5,0.7,1.8s1.2,0.5,2.2,0.4c0.4,0,0.9-0.1,1.6-0.3
			c0.3-0.1,0.6-0.1,0.7,0c0.1,0.1,0.2,0.3,0.2,0.7l0,0.2c0,0.3,0,0.6-0.1,0.7c-0.1,0.1-0.3,0.3-0.7,0.4c-0.6,0.2-1.1,0.3-1.7,0.3
			c-1.6,0.1-2.9-0.2-3.7-0.9C178.8,118.8,178.3,117.8,178.2,116.3z"/>
		<path class="st1" d="M195.1,112.5l0.2,4c0.1,1.1-0.3,2-0.9,2.6c-0.7,0.6-1.8,0.9-3.3,1c-2.8,0.1-4.2-0.8-4.3-3
			c-0.1-1.1,0.3-1.9,1-2.4c0.7-0.5,1.7-0.8,3.1-0.9l2.3-0.1l-0.1-1c0-0.6-0.3-1-0.7-1.2c-0.4-0.2-1-0.3-1.8-0.2
			c-0.8,0-1.5,0.1-2.2,0.3c-0.3,0.1-0.5,0.1-0.6,0c-0.1-0.1-0.2-0.3-0.2-0.6l0-0.3c0-0.3,0-0.5,0.1-0.6c0.1-0.1,0.3-0.2,0.6-0.3
			c0.6-0.1,1.3-0.2,2.1-0.3c1.5-0.1,2.7,0.1,3.5,0.6C194.6,110.4,195,111.3,195.1,112.5z M193.2,116.5l-0.1-1.3l-2.3,0.1
			c-0.7,0-1.2,0.2-1.6,0.4c-0.3,0.2-0.5,0.6-0.4,1.2c0,0.5,0.2,0.9,0.6,1.1c0.4,0.2,0.9,0.3,1.5,0.2c0.8,0,1.3-0.2,1.7-0.4
			C193,117.6,193.2,117.2,193.2,116.5z"/>
		<path class="st1" d="M206,105.5l0.5,9.3c0.1,1.5-0.3,2.6-1.1,3.4c-0.8,0.8-1.9,1.2-3.4,1.3c-3.1,0.2-4.8-1.2-4.9-4.2l-0.1-1.8
			c-0.2-3,1.2-4.6,4.1-4.7c1.4-0.1,2.5,0.3,3.1,1.2l-0.2-4.4c0-0.4,0-0.6,0.1-0.8c0.1-0.1,0.4-0.2,0.7-0.2l0.2,0
			c0.4,0,0.6,0,0.8,0.1C205.9,104.9,206,105.1,206,105.5z M199.1,113.4l0.1,1.8c0,0.9,0.3,1.5,0.6,1.8c0.4,0.4,1.1,0.5,2.1,0.5
			c1-0.1,1.7-0.3,2-0.7c0.3-0.4,0.5-1,0.5-1.9l-0.1-1.8c0-0.9-0.3-1.5-0.7-1.9c-0.4-0.4-1.1-0.5-2.1-0.5c-1,0.1-1.7,0.3-2,0.7
			C199.2,111.9,199,112.5,199.1,113.4z"/>
		<path class="st1" d="M217.2,112.3c0,0.3,0,0.6,0,0.9c0,0.4-0.1,0.6-0.2,0.8c-0.1,0.1-0.4,0.2-0.8,0.2l-5.7,0.3l0,0.5
			c0,0.8,0.3,1.3,0.8,1.6c0.5,0.3,1.2,0.4,2.3,0.4c0.8,0,1.7-0.2,2.7-0.5c0.3-0.1,0.5-0.1,0.7,0c0.1,0.1,0.2,0.3,0.2,0.7l0,0.3
			c0,0.3,0,0.6-0.1,0.7c-0.1,0.1-0.3,0.2-0.7,0.4c-0.8,0.3-1.7,0.4-2.7,0.5c-1.7,0.1-3-0.2-3.9-0.8c-0.9-0.7-1.3-1.8-1.4-3.3
			l-0.1-1.8c-0.2-3,1.3-4.5,4.3-4.7c1.4-0.1,2.5,0.2,3.3,0.9C216.8,109.8,217.2,110.9,217.2,112.3z M210.4,112.2l0,0.5l4.8-0.2
			l0-0.5c-0.1-1.4-0.9-2-2.5-1.9C211.1,110.2,210.3,110.9,210.4,112.2z"/>
		<path class="st1" d="M221.4,111.8l0.3,5.5c0,0.4,0,0.6-0.1,0.8c-0.1,0.1-0.4,0.2-0.7,0.2l-0.3,0c-0.4,0-0.6,0-0.8-0.1
			s-0.2-0.4-0.2-0.7l-0.3-5.5c-0.1-2.7,1.2-4.1,4-4.2c1.5-0.1,2.6,0.4,3.2,1.3c0.5-1,1.5-1.6,3-1.7c1.4-0.1,2.5,0.2,3.2,0.9
			c0.7,0.6,1.1,1.6,1.2,2.9l0.3,5.5c0,0.4,0,0.6-0.1,0.8c-0.1,0.1-0.4,0.2-0.7,0.2l-0.3,0c-0.4,0-0.6,0-0.8-0.1
			c-0.1-0.1-0.2-0.4-0.2-0.7l-0.3-5.5c0-0.7-0.2-1.2-0.5-1.5c-0.3-0.3-0.8-0.4-1.6-0.4s-1.3,0.2-1.6,0.6c-0.3,0.3-0.4,0.9-0.4,1.6
			l0.3,5.5c0,0.4,0,0.6-0.1,0.8c-0.1,0.1-0.4,0.2-0.7,0.2l-0.2,0c-0.4,0-0.6,0-0.8-0.1c-0.1-0.1-0.2-0.4-0.2-0.7l-0.3-5.5
			c0-0.7-0.2-1.2-0.5-1.5c-0.3-0.3-0.8-0.4-1.6-0.4c-0.8,0-1.3,0.2-1.6,0.6C221.5,110.6,221.3,111.1,221.4,111.8z"/>
		<path class="st1" d="M237.3,108.1l2,6.6c0.1,0.4,0.3,0.7,0.4,0.8c0.2,0.1,0.4,0.2,0.7,0.2c0.2,0,0.4-0.1,0.6-0.2
			c0.1-0.1,0.3-0.4,0.3-0.8l1.2-6.7c0.1-0.4,0.2-0.6,0.3-0.8c0.1-0.1,0.4-0.2,0.8-0.2l0.3,0c0.4,0,0.6,0,0.7,0.1s0.1,0.4,0,0.7
			l-1.8,9.4c-0.3,1.4-0.7,2.5-1.4,3.3s-1.6,1.3-2.8,1.4c-0.3,0-0.5,0-0.6-0.1c-0.1-0.1-0.3-0.3-0.4-0.6l-0.1-0.3
			c-0.1-0.3-0.1-0.5,0-0.6c0.1-0.1,0.3-0.2,0.5-0.3c0.7-0.1,1.2-0.4,1.6-0.9c0.4-0.5,0.7-1.1,0.9-1.9c-0.2,0.1-0.5,0.2-0.9,0.2
			c-0.8,0-1.3-0.1-1.7-0.6c-0.4-0.4-0.7-1.1-0.9-2l-2.1-6.7c-0.1-0.4-0.1-0.6,0-0.7s0.3-0.2,0.7-0.2l0.3,0c0.4,0,0.7,0,0.8,0.1
			C237.1,107.5,237.2,107.8,237.3,108.1z"/>
	</g>
	<path class="st0" d="M72.1,104c0-0.6-0.1-1.1,0.4-1.7l19.8-1c0.5,0.5,0.5,1,0.6,1.6c0.1,1.9-2.8,3.7-6.1,3.9l-8.2,0.4
		C75.2,107.4,72.2,105.9,72.1,104z M74.6,102.9c-0.2,0.6-0.1,1.3,0.4,1.9c0.9,1.3,3,1.7,4.6,0.9c0.5-0.2,0.9-0.5,1.2-0.9L74.6,102.9
		z M84.2,104.6c0.3,0.3,0.7,0.6,1.3,0.8c1.7,0.6,3.7,0,4.5-1.4c0.4-0.6,0.4-1.3,0.2-1.9L84.2,104.6z"/>
	<path class="st1" d="M90.7,111.9l6.1,1.3c-2.8,4.5-7.7,7.7-13.4,8c-9.2,0.5-17.1-6.6-17.5-15.9c-0.5-9.2,6.6-17.1,15.9-17.5
		c6.2-0.3,11.8,2.8,15,7.7c0.3,0.4,0.5,0.8,0.7,1.2c1,1.9,1.6,4,1.8,6.2c0,0.1,0,0.1,0,0.2c-1.1,0.6-2.3,1-3.6,1.1
		c-0.1,0-0.1,0-0.2,0l-1.8-0.4l-0.2,0.2c0.1-0.3,0-0.5,0-0.6c0-0.3-0.1-0.7-0.1-1c-1-5.4-5.8-9.3-11.4-9
		c-6.1,0.3-10.8,5.5-10.5,11.6c0.3,6.1,5.5,10.8,11.6,10.5C86.1,115.4,88.8,114,90.7,111.9z"/>
	<path class="st1" d="M122.6,117.7c-0.4,0.3-0.9,0.4-1.4,0.5c-1,0-2-0.4-2.5-1.3l-14-21.7l-2.5,4.8c-0.7,1.4-1.8,2.5-3,3.2
		c-1.1,0.6-2.3,1-3.6,1.1c-0.1,0-0.1,0-0.2,0c-0.6,0-1.3,0-2-0.2l3.9-7.3l4.5-8.6c0.5-0.9,1.4-1.5,2.4-1.5c1-0.1,2,0.4,2.5,1.3
		l16.7,25.8C124.3,115.1,123.9,116.8,122.6,117.7z"/>
	<path class="st1" d="M97.8,107.3c-3.3-0.7-6.4,1.4-7.1,4.7v0l11.2,2.3c3.3,0.7,6.4-1.4,7.1-4.7l0,0L97.8,107.3z"/>
</g>
</svg>
