<?xml version="1.0" encoding="utf-8"?>
<!-- Generator: Adobe Illustrator 24.2.3, SVG Export Plug-In . SVG Version: 6.00 Build 0)  -->
<svg version="1.1" id="Layer_1" xmlns="http://www.w3.org/2000/svg" xmlns:xlink="http://www.w3.org/1999/xlink" x="0px" y="0px"
	 viewBox="0 0 879 465.8" style="enable-background:new 0 0 879 465.8;" xml:space="preserve">
<style type="text/css">
	.st0{fill:url(#SVGID_1_);}
	.st1{fill:#777777;}
	.st2{fill:#BDBDBD;}
	.st3{fill:#211F20;}
	.st4{fill:#FDFDFD;}
	.st5{fill:#201E20;}
	.st6{fill:#211E1F;}
	.st7{fill:#201E1E;}
	.st8{fill:#201E1F;}
	.st9{fill:#201D1E;}
	.st10{fill:#130C0C;}
	.st11{fill:#121511;}
	.st12{fill:#F8F8F8;}
	.st13{fill:#0C0B0B;}
	.st14{fill:#0B0B0B;}
	.st15{fill:#0B0A0A;}
	.st16{fill:#EDECED;}
	.st17{fill:#F3F3F3;}
	.st18{fill:#F4F3F4;}
	.st19{fill:#F4F4F4;}
	.st20{fill:#F1F0F1;}
	.st21{fill:#EFEEEF;}
	.st22{fill:#F5F2F3;}
	.st23{fill:#F8F6F8;}
	.st24{fill:#EEEFEF;}
	.st25{fill:#282828;}
	.st26{fill:#292929;}
	.st27{fill:#121212;}
</style>
<linearGradient id="SVGID_1_" gradientUnits="userSpaceOnUse" x1="439.5" y1="-502.06" x2="439.5" y2="-746.38" gradientTransform="matrix(1 0 0 -1 0 -418)">
	<stop  offset="0" style="stop-color:#E5E5E5"/>
	<stop  offset="0.48" style="stop-color:#F4F4F4"/>
	<stop  offset="1" style="stop-color:#FFFFFF"/>
</linearGradient>
<ellipse class="st0" cx="439.5" cy="310.2" rx="439.5" ry="155.6"/>
<path class="st1" d="M379.2,382.9c13.6,0,24.1,9.9,24.1,22.9s-10.5,23-24.1,23s-24.1-10.1-24.1-23S365.6,382.9,379.2,382.9z
	 M379.2,421.9c8.9-0.1,16-7.5,15.8-16.3c-0.1-8.9-7.5-16-16.3-15.8c-8.8,0.1-15.8,7.3-15.8,16C362.9,414.8,370.2,422,379.2,421.9z"
	/>
<path class="st1" d="M424.1,393.7c10.6,0,18,7.1,18,17.5s-7.3,17.5-18,17.5s-18-7.1-18-17.5S413.4,393.7,424.1,393.7z M424.1,422.5
	c6.2,0,10.5-4.5,10.5-11.2s-4.4-11.2-10.5-11.2s-10.6,4.5-10.6,11.2S417.9,422.5,424.1,422.5z"/>
<path class="st1" d="M448.6,394h7.5v6c2.5-4,6.7-6.2,12.1-6.2c9.8,0,16.5,7.1,16.5,17.7c0,10.3-6.5,17.4-16.4,17.4
	c-5.5,0-9.7-2.2-12.2-6.2v18.6h-7.5V394z M466.6,422.4c6.2,0,10.5-4.7,10.5-11.3c0-6.4-4.4-11.2-10.5-11.2s-10.5,4.7-10.5,11.2
	C456,417.8,460.4,422.4,466.6,422.4L466.6,422.4z"/>
<path class="st1" d="M489.3,418.6c3.3,2.7,7.3,4.2,11.5,4.3c3.2,0,5.6-1.1,5.6-3.7c0-7.1-18.2-3.1-18.1-15.6c0-7,6.1-10,12.7-10
	c4.3,0,8.5,1.2,12.1,3.5l-2.7,5.5c-3-1.8-6.4-2.9-9.9-3c-2.9,0-5.1,1-5.1,3.4c0,6.4,18.4,2.9,18.3,15.4c0,7.1-6.3,10.3-13.2,10.3
	c-5.1,0-10.4-1.7-13.9-4.8L489.3,418.6z"/>
<path class="st1" d="M521.9,420.5c2.2-0.1,4,1.7,4.1,3.9c0,0.1,0,0.2,0,0.3c0.2,2.3-1.5,4.2-3.8,4.4s-4.2-1.5-4.4-3.8
	c0-0.2,0-0.4,0-0.6c-0.1-2.2,1.6-4.1,3.8-4.2C521.7,420.5,521.8,420.5,521.9,420.5z M518.3,383.7h7.1v11.2l-1.2,19.2h-4.7l-1.2-19.2
	L518.3,383.7z"/>
<g>
	<ellipse class="st2" cx="613.6" cy="345" rx="113.4" ry="22.8"/>
</g>
<g>
	<ellipse class="st2" cx="335.8" cy="337" rx="113.4" ry="22.8"/>
</g>
<g id="BxOgtP_1_">
	<g>
		<path class="st3" d="M357,202.3c-9.2,13-21.5,19.9-38.4,19.3c2.5,3,5.6,4.2,8.3,5.8c34.1,20.1,68.2,40.2,102.2,60.3
			c7.7,4.5,8.4,7.9,3.6,15.3c-7.5,11.7-15.1,23.3-22.5,35c-3.5,5.5-8.2,8.3-14.7,8.3c-34.4,0-68.9-0.1-103.3,0
			c-6.8,0-11-3.2-13.5-9.4c-8.8-21.4-17.6-42.7-26.5-64c-2.9-7-2.7-13.6,1.1-20.1c7.8-13.6,15.7-27.2,23.5-40.9
			c2-3.6,3.9-7.2,8.9-7.3c0.8,0,0.5-1.2,0.5-1.9c3.4-2.1,6.7-0.5,10.1,0.2c2.5,1,0.1,4.3,2.7,5.7c1.3-2.1-0.1-5.2,2.5-6.7
			c4.1-2.6,8.5-3.3,13.3-2.3c4.9,1.1,9.1-0.3,12.3-4.2c1.9-2.3,2.1-4.2-1-5.6c-2.7-1.1-5.4-2.5-8-3.7c-1.8-0.8-3.5-1.1-5.2,0.3
			c-4.5,3.6-9,2.3-13.5,0.2c-3-1.4-5.7-3.4-8.6-5c-7.9-4.3-12.9-2.4-15.7,6.1c-0.4,1.2-0.6,2.5-0.9,3.7c-2.5,7-7.1,12.8-11.4,19.3
			c0-4.4,0-8.8,0-14.4c-4.4,3.1-7.8,5.2-10.9,7.7c-2.7,2.1-5.2,2.3-8.1,0.7c-17.4-9.2-27.6-23.4-28.8-43
			c-1.6-26.6,8.8-47.7,31.4-61.9c25.4-16,58.5-6.8,72.2,19.8c3.8,7.4,9.3,11.2,16.7,13.2c18.7,5.1,29,17.3,31.6,36.3
			c0.6,4.7-0.2,9.3-1,13.8c-0.6,3,0.1,4.4,2.8,5.3c1.9,0.7,3.8,1.5,5.5,2.6c2.2,1.5,3.4,1.3,4.5-1.3c1.8-4.1,5.2-6.5,9.2-8.4
			c19.2-8.7,38.3-17.6,57.5-26.3c2.4-1.1,4.3-2.6,5.8-4.8c12-17.1,24-34.2,36-51.3c6.1-8.7,9.7-19,14.5-28.6
			c4.8-9.5,14.3-13.5,24.7-10c28.4,9.5,53.7,24.6,76.3,44.1c15.3,13.3,28.4,28.5,40.2,45c3.7,5.2,5.8,10.7,5.2,17.1
			c-2.1,24.1-4.2,48.2-6.3,72.3c-0.3,3.7-0.3,7.4-0.6,11.1c-0.2,2.4,1.3,3.7,2.9,5c17.6,15.2,35.2,30.5,52.9,45.6
			c11.1,9.5,12.2,22.7,2.6,33.6c-2,2.2-3.7,4.7-5.8,6.7c-9.3,8.3-20.4,8.7-30.1,0.5c-20.1-16.9-39.9-34.1-59.8-51.2
			c-0.8-0.7-1.6-1.7-2.5-2.2c-13.8-7.2-15.9-19.1-14.1-33c1.4-10.8,2.1-21.7,3-32.5c0.1-1,0-2.1,0-4.1c-6.1,5.3-11.5,10-17,14.5
			c-2.3,1.9-1.6,4.4-1.6,6.7c0.6,29.8,1.3,59.5,1.9,89.3c0.3,14.5-9.3,24-23.8,24.1c-3.9,0-7.9,0.3-11.6-0.4
			c-9.7-1.8-17.5-10.8-17.6-20.9c-0.3-37.6-2.1-75.1-1.4-112.7c0.1-6.3,2.8-11.4,7.5-15.5c11.8-10.4,23.5-20.8,35.4-31.1
			c2.7-2.3,2.9-3.2,0-5.7c-7.4-6.2-15.3-11.7-23.4-16.9c-2.3-1.5-3.6-2.1-4.1,1.8c-1.8,12.4-4.2,24.7-6.2,37.1
			c-0.9,5.7-4.1,9.7-9,12.6c-15,8.7-29.9,17.6-45,26.4c2.3,2.1,5.2,2.5,7.6,3.7c5.4,2.7,7.6,7.3,5.4,12.9
			c-2.1,5.5-4.6,10.9-7.5,16.1c-3.1,5.5-8.5,6.9-14.2,4c-8.7-4.4-17.4-9-26.1-13.5c-1.3-0.7-2.5-1.5-4.1-1.6
			c-13-1.2-18.1-5.3-22-17.8c-0.3-1.1-0.6-2.1-0.9-3.2c-0.4-0.7,0.1-1.6-0.6-2.3c-0.2-0.6-0.3-1.2-0.2-1.9c0.1-0.6,0.3-1.2,0.5-1.8
			c0.2-0.6,0.4-1.2,0.6-1.8c0.3-0.8,0.2-1.7,0.7-2.4c0.4-0.5,1-0.8,1.5-1.1c0.5-0.4,0.7-0.9,0.4-1.5c-8.2-4.7-16.8-8.5-25.3-12.4
			c-18.9-8.8-37.7-17.9-56.5-26.9c-6.7-3.2-13.4-6.2-20.1-9.4c-3.4-1.6-6.2-3.6-4.6-8.4c-2.8,0.5-4,3.8-6.9,2.2
			c-2.4-1.3-2.3-3.5-2.6-5.7c-0.4-2.6-1.9-2.7-3.9-1.2c-5.4,3.7-10.8,1.2-11.5-5.4c-0.2-1.7-0.5-2.9-2.2-3.3c-1.7-0.4-2.3,0.9-2.9,2
			c-2.2,4.3-4.4,8.6-6.4,12.9c-0.6,1.3-1.2,2.8,0.1,4.1c1.4,1.2,2.6,0.6,4-0.2c4.9-2.7,10-0.5,11.4,4.9c0.6,2.1,0.7,4.1,3.8,2.9
			c5.9-2.3,5.9-2.3,8.4,4.8c3.3-3.9,6.6-1.9,10.1-0.3c13.1,6,26.1,12.1,39.1,18.5c2,1,4.1,1.7,5.5,3.6
			C355,199.7,357.3,200.4,357,202.3z"/>
		<path class="st3" d="M493.9,67.4c-0.1,25.1-19.2,44.2-44.2,44.1c-24.8-0.1-43.9-19.5-43.8-44.7c0.1-24.4,19.9-43.4,45.1-43.3
			C474.8,23.7,494,43.3,493.9,67.4z"/>
		<path class="st4" d="M274,191.2c-0.1-2.2-0.4-4.3,0.4-6.5c2.6-6.8,7.9-9.1,14.5-5.9c4.6,2.2,9,5,13.7,7.2
			c3.7,1.8,7.6,2.3,10.1-2.1c1.1-2,2.3-1.2,3.7-0.5c2.6,1.3,5.4,2.3,7.9,3.8c2.5,1.5,6.7,1.1,7.1,4.9c0.3,3-7.8,9.2-11.3,9.4
			c-1.1,0-2.3,0.3-3.3-0.1c-5.5-2-10.5-0.3-15.6,1.6c-0.7,0.7-1.8-4.1-2.3,0.2c-0.1,0.6-1,0.9-1.8,0.7c-3.7,0.1-7.4-0.2-11-1.2
			c-0.1-3.8-1.4-7.4-2.7-11.4c-1.5,2.7-2.8,4.9-4.1,7.2c-2.3,0.5-2.6-1.4-3.3-2.8c0-2.5,0.1-5,0.6-7.7
			C275.7,189,274.9,190.1,274,191.2z"/>
		<path class="st5" d="M244.5,209.5c-16.9-2.6-33.9-5.2-50.8-7.7c-3-0.4-3-1.5-2.3-4c3.6-13.1,3.5-13.1,15.6-7.2
			c12.6,6.1,25.2,12.1,37.9,18.1C244.7,208.9,244.6,209.2,244.5,209.5z"/>
		<path class="st6" d="M268.1,219c-10.8,13.1-21.6,26.2-32.3,39.4c-1.5,1.8-2.3,1.5-3.8-0.1c-9.9-10.1-10-10,1.7-17.9
			c11.2-7.5,22.4-14.8,33.6-22.3C267.6,218.4,267.9,218.7,268.1,219z"/>
		<path class="st7" d="M331.7,227.3c16.4,1.8,32.8,3.6,49.2,5.3c2.1,0.2,2.8,0.8,2.3,3.1c-1.8,9.1-2.5,9.7-11.2,6.7
			c-13.5-4.8-27-9.7-40.5-14.6C331.6,227.6,331.6,227.5,331.7,227.3z"/>
		<path class="st8" d="M264.9,214.2c-8.7,5.9-16.7,11.3-24.7,16.7c-1.6,1.1-2.8,0.7-3.4-1.2c-0.1-0.4-0.3-0.7-0.4-1
			c-1-4.3-4.9-9-3.2-12.5c1.8-3.9,7.6-1.4,11.6-1.8C251.1,213.7,257.5,214.2,264.9,214.2z"/>
		<path class="st9" d="M366,207c-0.4,3.9,1.9,7.1,2.8,10.6c0.5,1.7,1.1,3.4-1.6,3.6c-10.4,0.9-20.7,1.8-31.4,1.5
			C345.9,217.5,355.9,212.3,366,207L366,207z"/>
		<path class="st10" d="M357,202.3c-0.1-1.4-4-0.7-1.7-3.3c3.6-0.4,6.8,1.1,9.9,2.6c13.9,6.8,27.9,13.5,42,19.8
			c2.2,1,4.3,2.1,5.4,4.4c1.1,0.7,0.2,1.4,0,2.2c-13.3-6.2-26.7-12.5-40-18.7c-2.1-1-4.1-2.6-6.7-2.3c0,0,0.1,0.1,0.1,0.1
			C363.7,204.1,360.2,203.6,357,202.3z"/>
		<path class="st11" d="M276,195.5c1.1,0.9,2.2,1.9,3.3,2.8c-1.2,2.6-2.3,5.2-3.9,8.9C274.6,202.4,275.5,199,276,195.5z"/>
		<path class="st12" d="M412.6,225.9c-19.1-9-38.2-17.9-57.3-26.9c-16.3-7.9-32.6-15.7-48.9-23.6c-2.1-1-3.2-1.1-4.2,1.3
			c-0.3,0.9-0.3,3.3-2.9,1.7c-1.9-1.1-3.2-1.9-1.6-4.2c1.1-1.5,0.8-2.5-0.9-3.4c-2.2-1.2-3-0.2-3.5,1.7c-0.7,2.4-2,2.6-4,1.3
			c-1.7-1.1-4.4-1.1-2.8-4.5c2.4-5.2-3.3-3.8-5.1-5.6c-2.2-2.2-3.4-0.6-4.2,1.6c-1.4,4-3.5,0.9-5.2,0.5c-2.1-0.6-3.4-1.5-1.9-4.3
			c3-5.5,5.5-11.2,8-16.9c1.1-2.5,2.4-2.8,4.4-1.3c1.6,1.2,5.1,0.9,3.1,4.7c-2.8,5.3,2.9,4,4.7,5.6c1.8,1.7,3.7,1.5,4.3-1.3
			c0.7-3,2.2-2.7,4.3-1.4c1.6,1.1,4.7,1.1,2.5,4.4c-0.9,1.4-1.9,2.8,0.5,4c2.3,1.2,3.3-0.2,3.8-1.9c0.7-2.4,1.7-2.5,4-1.6
			c3,1.2,1.2,2.8,0.5,3.8c-2.1,3.1,0.1,3.6,2.3,4.6c33.9,16.1,67.8,32.3,101.7,48.5c1.5,0.7,3.8,0.5,3.8,3.1
			c-2.5,2.1-4.5,0.1-6.5-0.8c-32.6-15.7-65.5-31-98.1-46.8c-1.3-0.6-2.5-1.6-4.1-1.3c-0.7,0.5-1,1.2-0.4,2
			c15.1,7.5,30.3,14.6,45.5,21.8c16.2,7.7,32.5,15.2,48.5,23.3c3.7,1.8,8.5,2,10.6,6.5c0,0.6,0,1.2-0.1,1.8c-1.6,1.2-2.8,0-4-0.6
			c-15.2-7.5-30.7-14.5-46-21.9c-18.4-8.9-37.1-17.3-55.5-26.4c-0.7-0.2-0.4,0.8-0.3,0.1c0-0.1,0.2-0.1,0.5,0.1
			c14.3,6.9,28.7,13.6,43,20.4c18.6,9,37.4,17.6,55.9,26.8c1.8,0.9,3.8,1.5,5.1,3.2C412.6,224.4,412.6,225.2,412.6,225.9z"/>
		<path class="st13" d="M308.1,166.2c1.2-1.6,1.2-1.6,3.4-0.6c16.4,7.8,32.7,15.5,49.1,23.3c18.6,8.9,37.3,17.7,55.9,26.6
			c0.5,0.2,1.1,0.1,1.6,0.1c-0.3,1.2-1,2-2.1,2.5c-8.9-2.1-16.6-7-24.7-10.8c-25.9-12.2-51.8-24.3-77.5-36.9
			C311.7,169.4,309.3,168.6,308.1,166.2z"/>
		<path class="st14" d="M412.6,223.7c-31.1-14.7-62.1-29.3-93.2-44.1c-5-2.4-10.4-4-14.7-7.5c0.2-0.4,0.4-0.8,0.6-1.2
			c36.1,17.1,72.2,34.2,108.4,51.3C413.3,222.7,412.9,223.2,412.6,223.7z"/>
		<path class="st15" d="M413.7,220.4c-35-16.7-70-33.3-105-50c-1.2-0.6-2.5-0.8-2.7-2.3c2.3-1.4,4.2,0,6.2,1
			c32.3,15.3,64.5,30.7,96.8,45.9c1.7,0.8,4,1.1,4.7,3.4C413.9,219.1,414.9,219.7,413.7,220.4z"/>
		<path class="st16" d="M413.7,218.4c-34.8-16.6-69.7-33.3-104.6-49.9c-0.9-0.4-2.1-0.3-3.2-0.5c0.7-0.6,1.4-1.3,2.2-1.9
			c35.2,16.6,70.3,33.2,105.5,49.9c0.9,0.4,2.2,0.6,2.4,2C415.2,218.2,414.5,218.3,413.7,218.4z"/>
		<path class="st4" d="M479.9,177.8c4.4-6.3,8-11.5,11.8-17C493.4,169.7,491.9,171.9,479.9,177.8z"/>
		<path class="st4" d="M310.3,207.2c0.8,3.8,1.4,7,2.2,10.8c-3.5-0.7-7.2-2.2-7.9-4.5C303.8,210.6,308,209.6,310.3,207.2z"/>
		<path class="st17" d="M245.1,190.9c-1.5-0.6-3.5-1.1-3.5-3.7c0-2.8,1.7-4,4-4c2.3,0,3.7,1.6,3.6,3.9
			C249.2,189.5,247.5,190.6,245.1,190.9z"/>
		<path class="st18" d="M243.8,171.1c-0.1,2.2-1.7,3.6-3.8,3.5c-2.1-0.1-3.8-1.6-3.8-4c0.1-2.3,1.5-3.7,3.9-3.6
			C242.6,167,243.7,168.3,243.8,171.1z"/>
		<path class="st19" d="M266,184.2c0.1,3.8-1,5.1-3.6,5.1c-2.4,0-4-1.3-4-3.6c0-2.2,1.4-4,3.8-3.9
			C264.4,181.8,265.9,183.2,266,184.2z"/>
		<path class="st4" d="M297.1,203.8c0.9-1.4,1.7-2.8,2.8-4.5c0.5,1.4,0.9,2.5,1.3,3.6c-1.1,2.7,1.2,5.4,0.1,8.1
			C294.5,209.5,294.3,209.1,297.1,203.8z"/>
		<path class="st20" d="M260.8,169.1c-0.1,2.5-1.5,4-3.8,4.1c-2.4,0.1-3.8-1.7-3.8-3.9c0-2,1.3-3.4,3.5-3.6
			C259.1,165.5,260.5,166.7,260.8,169.1z"/>
		<path class="st4" d="M418,210.8c6.4-3,12.4-5.7,18.4-8.4C429.4,209.1,421.7,212.5,418,210.8z"/>
		<path class="st21" d="M470.3,257.5c-0.4,1.9-1.4,2.9-3.4,2.9c-2-0.1-3.2-1.1-3.1-3.1c0.1-2,1.7-3.1,3.3-3.1
			C468.8,254.2,470.2,255.5,470.3,257.5z"/>
		<path class="st22" d="M477.3,232.6c1.6,0.7,3.2,1.5,3,3.5c-0.2,1.9-1.5,3.1-3.3,3c-1.8-0.1-3.2-1.4-3-3.3
			C474.1,234.1,475.5,232.9,477.3,232.6z"/>
		<path class="st23" d="M458.2,252.7c0,0.7-0.5,2.1-2.7,2.1c-2,0-3-0.9-3-3c0-1.8,0.9-2.8,2.6-2.9
			C456.8,248.7,458.3,249.3,458.2,252.7z"/>
		<path class="st24" d="M444.8,244.5c1.7,0,2.2,0.8,2.1,1.8c-0.2,1.8-1.1,3-3.2,3c-1.4,0-3.2-0.6-2.7-1.7
			C441.8,246.1,443.8,245.3,444.8,244.5z"/>
		<path class="st25" d="M282.8,154.1c3.7-1.9,6,1.3,9,1.9c0.2,0,0.6,1,0.4,1.3c-0.4,0.6-1,1-1.8,0.6
			C287.9,156.7,285.4,155.4,282.8,154.1z"/>
		<path class="st26" d="M280.1,159.9c3.6,0.3,6.5,1.9,9.1,4.2C285.4,164.4,282.5,162.5,280.1,159.9z"/>
		<path class="st27" d="M281.8,156.5c3.3,0.7,6.6,1.4,8.6,4.4C287,160.4,284,159.2,281.8,156.5z"/>
	</g>
</g>
</svg>
